<svg width="160" height="40" viewBox="0 0 160 40" fill="none" xmlns="http://www.w3.org/2000/svg">
<path d="M7.21168 0.0250472C6.96588 -0.0708265 6.70117 0.120921 6.70117 0.389367V5.20223C6.70117 5.5282 6.90916 5.81582 7.19277 5.93087C9.85874 6.90878 11.5604 7.52237 14.2264 8.51946C14.4722 8.61533 14.7369 8.42358 14.7369 8.15514V3.3231C14.7369 2.99713 14.5289 2.70951 14.2453 2.59446L7.21168 0.0250472Z" fill="#FD6E1D"/>
<path fill-rule="evenodd" clip-rule="evenodd" d="M14.7374 10.5283H14.4727C12.563 10.5283 10.6912 10.931 8.93277 11.698C7.19328 12.465 5.62395 13.5963 4.31933 15.0152C2.06933 17.5463 0.726891 20.7676 0.537815 24.1807C0.5 24.5834 0.5 25.0244 0.5 25.4654V25.638C0.518908 29.262 1.88025 32.7518 4.33824 35.398C6.62605 37.8907 9.70798 39.463 13.0168 39.8848C13.4517 39.9424 13.9055 39.9807 14.3592 39.9999C14.5483 39.9999 14.6996 39.8465 14.6996 39.6739V36.8169C14.7185 36.6251 14.8508 36.4909 15.0399 36.4717L15.6261 36.4142C18.6891 36.1841 21.563 34.8611 23.7563 32.656C26.1576 30.2208 27.5 26.9227 27.5 23.4904C27.5 21.7839 27.1786 20.0965 26.5357 18.5242C25.8929 16.9519 24.9475 15.5138 23.7752 14.3249C21.3739 11.8897 18.1218 10.5283 14.7374 10.5283ZM22.4328 25.0436C22.1303 26.5968 21.3739 28.0349 20.2773 29.147C19.1807 30.2591 17.7626 31.0261 16.2311 31.3329C14.6996 31.6397 13.1113 31.4863 11.6744 30.8727C10.2374 30.2591 8.9895 29.2429 8.13866 27.9198C7.26891 26.5968 6.81513 25.0436 6.81513 23.4713C6.81513 22.4167 7.02311 21.3812 7.42017 20.4033C7.81723 19.4254 8.40336 18.5434 9.14076 17.7955C9.87815 17.0477 10.7479 16.4533 11.6933 16.0506C12.6576 15.648 13.6786 15.4371 14.7185 15.4371C16.2878 15.4371 17.8004 15.9164 19.105 16.7793C20.4097 17.6613 21.4118 18.9077 22.0168 20.365C22.5651 21.8798 22.7353 23.4904 22.4328 25.0436Z" fill="#FD6E1D"/>
<path d="M148.767 19.1727L152.058 23.4855H152.185L155.492 19.1727H159.388L154.408 25.4997L159.499 31.8267H155.532L152.185 27.5078H152.058L148.712 31.8267H144.76L149.867 25.4997L144.855 19.1727H148.767Z" fill="white"/>
<path d="M142.696 19.1727V31.8267H139.246V19.1727H142.696Z" fill="white"/>
<path d="M126.516 31.8267V19.1727H129.966V29.6209H136.961V31.8267H126.516Z" fill="white"/>
<path d="M113.391 31.8267V19.1727H124.194V21.3785H116.841V24.3937H123.477V26.5995H116.841V31.8267H113.391Z" fill="white"/>
<path d="M96.6514 31.8267V19.1727H100.101V24.3937H107.105V19.1727H110.547V31.8267H107.105V26.5995H100.101V31.8267H96.6514Z" fill="white"/>
<path d="M94.1781 23.603H90.6883C90.6246 23.2529 90.4945 22.9419 90.2979 22.67C90.1014 22.394 89.8491 22.1593 89.541 21.9657C89.233 21.7721 88.8771 21.6238 88.4734 21.5208C88.075 21.4178 87.6421 21.3663 87.1747 21.3663C86.3302 21.3663 85.5945 21.529 84.9677 21.8544C84.341 22.1757 83.855 22.6453 83.5097 23.2632C83.1645 23.8769 82.9918 24.6225 82.9918 25.4999C82.9918 26.402 83.1645 27.1599 83.5097 27.7736C83.8603 28.3874 84.3489 28.8508 84.9757 29.1639C85.6025 29.4769 86.3275 29.6334 87.1508 29.6334C87.6129 29.6334 88.0405 29.5861 88.4336 29.4913C88.8319 29.3966 89.1852 29.2586 89.4932 29.0773C89.8013 28.892 90.0563 28.6675 90.2581 28.4039C90.4653 28.1402 90.6087 27.8395 90.6883 27.5018L94.1781 27.5141C94.0878 28.0949 93.862 28.6551 93.5008 29.1947C93.145 29.7302 92.6643 30.2101 92.0587 30.6344C91.4585 31.0545 90.7415 31.3882 89.9075 31.6353C89.0789 31.8784 88.1414 31.9999 87.095 31.9999C85.6397 31.9999 84.3383 31.7445 83.191 31.2337C82.049 30.7229 81.146 29.9836 80.4821 29.0156C79.8235 28.0476 79.4941 26.8757 79.4941 25.4999C79.4941 24.12 79.8288 22.946 80.498 21.978C81.1673 21.01 82.0756 20.2727 83.2229 19.766C84.3702 19.2553 85.6609 18.9999 87.095 18.9999C88.0405 18.9999 88.9169 19.1029 89.7243 19.3088C90.537 19.5148 91.2567 19.8155 91.8835 20.2109C92.5102 20.6022 93.0201 21.0821 93.4132 21.6505C93.8116 22.219 94.0665 22.8698 94.1781 23.603Z" fill="white"/>
<path d="M66.5768 31.8267H62.8799L68.5128 19.1727H72.9586L78.5836 31.8267H74.8868L70.7995 22.0644H70.672L66.5768 31.8267ZM66.3457 26.8529H75.078V28.9413H66.3457V26.8529Z" fill="white"/>
<path d="M50.0264 31.8267V19.1727H61.0214V21.3785H53.4763V24.3937H60.4557V26.5995H53.4763V29.6209H61.0533V31.8267H50.0264Z" fill="white"/>
<path d="M35.5 31.8267V19.1727H41.9377C43.1753 19.1727 44.2296 19.356 45.1007 19.7226C45.9718 20.0851 46.6358 20.5897 47.0926 21.2364C47.5547 21.879 47.7857 22.6204 47.7857 23.4608C47.7857 24.3011 47.552 25.0425 47.0846 25.6851C46.6172 26.3277 45.94 26.8281 45.0529 27.1865C44.1712 27.5449 43.1036 27.7241 41.85 27.7241H37.7468V25.58H41.2923C41.9563 25.58 42.5033 25.4915 42.9336 25.3144C43.3691 25.1331 43.6931 24.8839 43.9056 24.5667C44.1234 24.2454 44.2323 23.8768 44.2323 23.4608C44.2323 23.0406 44.1234 22.674 43.9056 22.3609C43.6931 22.0438 43.3691 21.7987 42.9336 21.6257C42.498 21.4486 41.9456 21.36 41.2764 21.36H38.9499V31.8267H35.5Z" fill="white"/>
</svg>
