<svg width="24" height="25" viewBox="0 0 24 25" fill="none" xmlns="http://www.w3.org/2000/svg">
<path d="M12 17.775L7.85002 20.275C7.66668 20.3917 7.47502 20.4417 7.27501 20.425C7.07501 20.4083 6.90001 20.3417 6.75002 20.225C6.60001 20.1083 6.48335 19.9625 6.40002 19.7875C6.31668 19.6125 6.30002 19.4167 6.35002 19.2L7.45002 14.475L3.77502 11.3C3.60835 11.15 3.50418 10.9792 3.46252 10.7875C3.42085 10.5958 3.43335 10.4083 3.50002 10.225C3.56668 10.0417 3.66668 9.89166 3.80002 9.775C3.93335 9.65833 4.11668 9.58333 4.35002 9.55L9.20002 9.125L11.075 4.675C11.1583 4.475 11.2875 4.325 11.4625 4.225C11.6375 4.125 11.8167 4.075 12 4.075C12.1833 4.075 12.3625 4.125 12.5375 4.225C12.7125 4.325 12.8417 4.475 12.925 4.675L14.8 9.125L19.65 9.55C19.8833 9.58333 20.0667 9.65833 20.2 9.775C20.3333 9.89166 20.4333 10.0417 20.5 10.225C20.5667 10.4083 20.5792 10.5958 20.5375 10.7875C20.4958 10.9792 20.3917 11.15 20.225 11.3L16.55 14.475L17.65 19.2C17.7 19.4167 17.6833 19.6125 17.6 19.7875C17.5167 19.9625 17.4 20.1083 17.25 20.225C17.1 20.3417 16.925 20.4083 16.725 20.425C16.525 20.4417 16.3333 20.3917 16.15 20.275L12 17.775Z" fill="#FAFAFA"/>
</svg>
